<svg width="101" height="101" viewBox="0 0 101 101" fill="none" xmlns="http://www.w3.org/2000/svg">
<circle cx="5" cy="5" r="5" fill="#7FFFD4FF"/>
<circle cx="96" cy="5" r="5" fill="#7FFFD4FF"/>
<circle cx="83" cy="5" r="5" fill="#7FFFD4FF"/>
<circle cx="70" cy="5" r="5" fill="#7FFFD4FF"/>
<circle cx="57" cy="5" r="5" fill="#7FFFD4FF"/>
<circle cx="44" cy="5" r="5" fill="#7FFFD4FF"/>
<circle cx="31" cy="5" r="5" fill="#7FFFD4FF"/>
<circle cx="18" cy="5" r="5" fill="#7FFFD4FF"/>
<circle cx="5" cy="96" r="5" fill="#7FFFD4FF"/>
<circle cx="96" cy="96" r="5" fill="#7FFFD4FF"/>
<circle cx="83" cy="96" r="5" fill="#7FFFD4FF"/>
<circle cx="70" cy="96" r="5" fill="#7FFFD4FF"/>
<circle cx="57" cy="96" r="5" fill="#7FFFD4FF"/>
<circle cx="44" cy="96" r="5" fill="#7FFFD4FF"/>
<circle cx="31" cy="96" r="5" fill="#7FFFD4FF"/>
<circle cx="18" cy="96" r="5" fill="#7FFFD4FF"/>
<circle cx="5" cy="83" r="5" fill="#7FFFD4FF"/>
<circle cx="96" cy="83" r="5" fill="#7FFFD4FF"/>
<circle cx="83" cy="83" r="5" fill="#7FFFD4FF"/>
<circle cx="70" cy="83" r="5" fill="#7FFFD4FF"/>
<circle cx="57" cy="83" r="5" fill="#7FFFD4FF"/>
<circle cx="44" cy="83" r="5" fill="#7FFFD4FF"/>
<circle cx="31" cy="83" r="5" fill="#7FFFD4FF"/>
<circle cx="18" cy="83" r="5" fill="#7FFFD4FF"/>
<circle cx="5" cy="70" r="5" fill="#7FFFD4FF"/>
<circle cx="96" cy="70" r="5" fill="#7FFFD4FF"/>
<circle cx="83" cy="70" r="5" fill="#7FFFD4FF"/>
<circle cx="70" cy="70" r="5" fill="#7FFFD4FF"/>
<circle cx="57" cy="70" r="5" fill="#7FFFD4FF"/>
<circle cx="44" cy="70" r="5" fill="#7FFFD4FF"/>
<circle cx="31" cy="70" r="5" fill="#7FFFD4FF"/>
<circle cx="18" cy="70" r="5" fill="#7FFFD4FF"/>
<circle cx="5" cy="57" r="5" fill="#7FFFD4FF"/>
<circle cx="96" cy="57" r="5" fill="#7FFFD4FF"/>
<circle cx="83" cy="57" r="5" fill="#7FFFD4FF"/>
<circle cx="70" cy="57" r="5" fill="#7FFFD4FF"/>
<circle cx="57" cy="57" r="5" fill="#7FFFD4FF"/>
<circle cx="44" cy="57" r="5" fill="#7FFFD4FF"/>
<circle cx="31" cy="57" r="5" fill="#7FFFD4FF"/>
<circle cx="18" cy="57" r="5" fill="#7FFFD4FF"/>
<circle cx="5" cy="44" r="5" fill="#7FFFD4FF"/>
<circle cx="96" cy="44" r="5" fill="#7FFFD4FF"/>
<circle cx="83" cy="44" r="5" fill="#7FFFD4FF"/>
<circle cx="70" cy="44" r="5" fill="#7FFFD4FF"/>
<circle cx="57" cy="44" r="5" fill="#7FFFD4FF"/>
<circle cx="44" cy="44" r="5" fill="#7FFFD4FF"/>
<circle cx="31" cy="44" r="5" fill="#7FFFD4FF"/>
<circle cx="18" cy="44" r="5" fill="#7FFFD4FF"/>
<circle cx="5" cy="31" r="5" fill="#7FFFD4FF"/>
<circle cx="96" cy="31" r="5" fill="#7FFFD4FF"/>
<circle cx="83" cy="31" r="5" fill="#7FFFD4FF"/>
<circle cx="70" cy="31" r="5" fill="#7FFFD4FF"/>
<circle cx="57" cy="31" r="5" fill="#7FFFD4FF"/>
<circle cx="44" cy="31" r="5" fill="#7FFFD4FF"/>
<circle cx="31" cy="31" r="5" fill="#7FFFD4FF"/>
<circle cx="18" cy="31" r="5" fill="#7FFFD4FF"/>
<circle cx="5" cy="18" r="5" fill="#7FFFD4FF"/>
<circle cx="96" cy="18" r="5" fill="#7FFFD4FF"/>
<circle cx="83" cy="18" r="5" fill="#7FFFD4FF"/>
<circle cx="70" cy="18" r="5" fill="#7FFFD4FF"/>
<circle cx="57" cy="18" r="5" fill="#7FFFD4FF"/>
<circle cx="44" cy="18" r="5" fill="#7FFFD4FF"/>
<circle cx="31" cy="18" r="5" fill="#7FFFD4FF"/>
<circle cx="18" cy="18" r="5" fill="#7FFFD4FF"/>
</svg>
